<svg width="150" height="32" viewBox="0 0 150 32" fill="none" xmlns="http://www.w3.org/2000/svg">
<g clip-path="url(#clip0_1_304)">
<path d="M0.0211182 5.66309H6.44189V24.2951H0.0211182V5.66309Z" fill="white"/>
<path d="M9.44733 18.9618L17.4391 11.0657H9.44733V5.66309H24.9528V11.0657L17.0976 18.9618H25.3626V24.3644H9.44733V18.9618Z" fill="white"/>
<path d="M27.6851 18.9618L35.6769 11.0657H27.6851V5.66309H43.2588V11.0657L35.3353 18.9618H43.6004V24.3644H27.6851V18.9618Z" fill="white"/>
<path d="M64.3654 5.66309L57.9446 24.2951C56.1004 29.4899 53.2998 31.9834 49.4747 31.9834C48.5867 31.9834 47.6304 31.9142 46.7425 31.7756L45.9228 26.4423C46.3326 26.5808 46.8108 26.5808 47.2206 26.5808C48.5867 26.5808 51.0457 26.373 51.2507 24.2951L44.8299 5.66309H52.002L55.0075 16.2605L57.7397 5.66309H64.3654Z" fill="white"/>
<path d="M67.3975 0.00756836H70.4029V10.3972H70.4712C70.9494 9.49675 71.7007 8.73484 72.5887 8.24999C73.545 7.69588 74.5696 7.41882 75.6625 7.41882C77.8483 7.41882 81.4002 8.8041 81.4002 14.553V24.3885H78.3947V14.8301C78.3947 12.1288 77.4385 9.91233 74.5696 9.91233C72.7253 9.98159 71.1543 11.1591 70.5395 12.9599C70.4029 13.4448 70.3346 13.9296 70.3346 14.4145V24.3885H67.3292L67.3975 0.00756836Z" fill="white"/>
<path d="M86.4548 16.631C86.5232 20.7176 89.1188 22.3799 92.0559 22.3799C93.627 22.4492 95.1297 22.1029 96.6324 21.5487L97.1106 23.6959C95.4029 24.4578 93.4904 24.8042 91.6461 24.7349C86.5915 24.7349 83.586 21.3409 83.586 16.3539C83.586 11.3669 86.5231 7.34961 91.3046 7.34961C96.6324 7.34961 98.0669 12.1288 98.0669 15.1764C98.0669 15.6613 97.9986 16.1461 97.9986 16.5617H86.4548V16.631ZM95.198 14.4838C95.2663 12.5444 94.4467 9.56606 91.0314 9.56606C88.0259 9.56606 86.6598 12.4059 86.4548 14.4838H95.198Z" fill="white"/>
<path d="M110.567 24.3886L110.362 22.3107H110.294C109.132 23.9037 107.22 24.8042 105.307 24.8042C101.96 24.8042 100.321 22.4492 100.321 20.0249C100.321 16.0076 103.873 13.7912 110.157 13.8605V13.5141C110.157 12.1289 109.816 9.63534 106.4 9.63534C104.897 9.63534 103.395 10.0509 102.097 10.8821L101.414 8.87344C103.053 7.90374 104.897 7.34963 106.81 7.41889C111.796 7.41889 113.026 10.8821 113.026 14.2068V20.4405C113.026 21.7566 113.094 23.1418 113.299 24.4578L110.567 24.3886ZM110.157 15.9384C106.878 15.8691 103.19 16.4232 103.19 19.6786C103.053 21.1332 104.146 22.4492 105.581 22.5877C105.717 22.5877 105.854 22.5877 105.99 22.5877C107.766 22.657 109.406 21.4795 109.952 19.8172C110.089 19.5401 110.089 19.1938 110.089 18.8475V15.9384H110.157Z" fill="white"/>
<path d="M116.646 0.00756836H119.652V24.3885H116.646V0.00756836Z" fill="white"/>
<path d="M128.258 2.98584V7.76506H132.561V10.0508H128.258V19.0551C128.258 21.133 128.805 22.3105 130.512 22.3105C131.127 22.3105 131.673 22.2412 132.22 22.1027L132.356 24.3884C131.537 24.6655 130.581 24.804 129.693 24.804C128.463 24.8733 127.302 24.3884 126.482 23.5573C125.663 22.6568 125.321 21.2023 125.321 19.1936V10.12H122.794V7.76506H125.321V3.74774L128.258 2.98584Z" fill="white"/>
<path d="M136.055 0.459961H139.06V10.8496H139.128C139.607 9.94914 140.358 9.18723 141.246 8.70238C142.202 8.14827 143.227 7.87122 144.32 7.87122C146.505 7.87122 150.057 9.2565 150.057 15.0054V24.9102H147.052V15.3517C147.052 12.6504 146.096 10.434 143.227 10.434C141.383 10.5032 139.811 11.6808 139.197 13.4816C139.06 13.9665 138.992 14.4513 138.992 14.9361V24.9794H135.986L136.055 0.459961Z" fill="white"/>
</g>
<defs>
<clipPath id="clip0_1_304">
<rect width="150" height="32" fill="white"/>
</clipPath>
</defs>
</svg>
