<svg width="146" height="31" viewBox="0 0 146 31" fill="none" xmlns="http://www.w3.org/2000/svg">
<g clip-path="url(#clip0_1_327)">
<path d="M0.0204468 5.48608H6.24057V23.5359H0.0204468V5.48608Z" fill="#CDEAEA"/>
<path d="M9.1521 18.3692L16.8942 10.7198H9.1521V5.48608H24.173V10.7198L16.5633 18.3692H24.57V23.603H9.1521V18.3692Z" fill="#CDEAEA"/>
<path d="M26.8199 18.3692L34.562 10.7198H26.8199V5.48608H41.907V10.7198L34.2311 18.3692H42.2378V23.603H26.8199V18.3692Z" fill="#CDEAEA"/>
<path d="M62.354 5.48608L56.1339 23.5359C54.3472 28.5683 51.6342 30.9839 47.9286 30.9839C47.0684 30.9839 46.142 30.9168 45.2818 30.7826L44.4877 25.616C44.8847 25.7502 45.3479 25.7502 45.745 25.7502C47.0684 25.7502 49.4506 25.5488 49.6491 23.5359L43.429 5.48608H50.377L53.2885 15.7523L55.9354 5.48608H62.354Z" fill="#CDEAEA"/>
<path d="M86.7524 28.125L77.7574 4.78H71.5274L62.5324 28.125H68.1674L69.6374 24.17H79.6474L81.1174 28.125H86.7524ZM78.2824 19.795H71.0024L74.6424 9.75L78.2824 19.795ZM93.8781 28.125V4.78H88.9081V28.125H93.8781Z" fill="#CDEAEA"/>
</g>
<defs>
<clipPath id="clip0_1_327">
<rect width="145.312" height="31" fill="white"/>
</clipPath>
</defs>
</svg>
