<svg width="217" height="34" viewBox="0 0 217 34" fill="none" xmlns="http://www.w3.org/2000/svg">
<g clip-path="url(#clip0_1_352)">
<path d="M67.0211 5.66309H73.4419V24.2951H67.0211V5.66309Z" fill="white"/>
<path d="M76.4474 18.9618L84.4392 11.0657H76.4474V5.66309H91.9528V11.0657L84.0976 18.9618H92.3627V24.3644H76.4474V18.9618Z" fill="white"/>
<path d="M94.6851 18.9618L102.677 11.0657H94.6851V5.66309H110.259V11.0657L102.335 18.9618H110.6V24.3644H94.6851V18.9618Z" fill="white"/>
<path d="M131.365 5.66309L124.945 24.2951C123.1 29.4899 120.3 31.9834 116.475 31.9834C115.587 31.9834 114.63 31.9142 113.742 31.7756L112.923 26.4423C113.333 26.5808 113.811 26.5808 114.221 26.5808C115.587 26.5808 118.046 26.373 118.251 24.2951L111.83 5.66309H119.002L122.007 16.2605L124.74 5.66309H131.365Z" fill="white"/>
<path d="M134.397 0.00756836H137.403V10.3972H137.471C137.949 9.49675 138.701 8.73484 139.589 8.24999C140.545 7.69588 141.57 7.41882 142.663 7.41882C144.848 7.41882 148.4 8.8041 148.4 14.553V24.3885H145.395V14.8301C145.395 12.1288 144.438 9.91233 141.57 9.91233C139.725 9.98159 138.154 11.1591 137.54 12.9599C137.403 13.4448 137.335 13.9296 137.335 14.4145V24.3885H134.329L134.397 0.00756836Z" fill="white"/>
<path d="M153.455 16.631C153.523 20.7176 156.119 22.3799 159.056 22.3799C160.627 22.4492 162.13 22.1029 163.632 21.5487L164.111 23.6959C162.403 24.4578 160.49 24.8042 158.646 24.7349C153.591 24.7349 150.586 21.3409 150.586 16.3539C150.586 11.3669 153.523 7.34961 158.305 7.34961C163.632 7.34961 165.067 12.1288 165.067 15.1764C165.067 15.6613 164.999 16.1461 164.999 16.5617H153.455V16.631ZM162.198 14.4838C162.266 12.5444 161.447 9.56606 158.031 9.56606C155.026 9.56606 153.66 12.4059 153.455 14.4838H162.198Z" fill="white"/>
<path d="M177.567 24.3886L177.362 22.3107H177.294C176.132 23.9037 174.22 24.8042 172.307 24.8042C168.96 24.8042 167.321 22.4492 167.321 20.0249C167.321 16.0076 170.873 13.7912 177.157 13.8605V13.5141C177.157 12.1289 176.816 9.63534 173.4 9.63534C171.897 9.63534 170.395 10.0509 169.097 10.8821L168.414 8.87344C170.053 7.90374 171.897 7.34963 173.81 7.41889C178.796 7.41889 180.026 10.8821 180.026 14.2068V20.4405C180.026 21.7566 180.094 23.1418 180.299 24.4578L177.567 24.3886ZM177.157 15.9384C173.878 15.8691 170.19 16.4232 170.19 19.6786C170.053 21.1332 171.146 22.4492 172.581 22.5877C172.717 22.5877 172.854 22.5877 172.99 22.5877C174.766 22.657 176.406 21.4795 176.952 19.8172C177.089 19.5401 177.089 19.1938 177.089 18.8475V15.9384H177.157Z" fill="white"/>
<path d="M183.646 0.00756836H186.652V24.3885H183.646V0.00756836Z" fill="white"/>
<path d="M195.258 2.98584V7.76506H199.561V10.0508H195.258V19.0551C195.258 21.133 195.805 22.3105 197.512 22.3105C198.127 22.3105 198.673 22.2412 199.22 22.1027L199.356 24.3884C198.537 24.6655 197.581 24.804 196.693 24.804C195.463 24.8733 194.302 24.3884 193.482 23.5573C192.663 22.6568 192.321 21.2023 192.321 19.1936V10.12H189.794V7.76506H192.321V3.74774L195.258 2.98584Z" fill="white"/>
<path d="M203.055 0.459961H206.06V10.8496H206.128C206.607 9.94914 207.358 9.18723 208.246 8.70238C209.202 8.14827 210.227 7.87122 211.32 7.87122C213.505 7.87122 217.057 9.2565 217.057 15.0054V24.9102H214.052V15.3517C214.052 12.6504 213.096 10.434 210.227 10.434C208.383 10.5032 206.811 11.6808 206.197 13.4816C206.06 13.9665 205.992 14.4513 205.992 14.9361V24.9794H202.986L203.055 0.459961Z" fill="white"/>
</g>
<g clip-path="url(#clip1_1_352)">
<path d="M38.9959 2.25569L39.6283 0.814935C33.4428 -2.01063 27.4516 3.40222 27.1997 3.63428L28.2356 4.80636C28.2911 4.75594 33.719 -0.155467 38.9959 2.25569Z" fill="white"/>
<path d="M47.6926 6.39436L46.3547 7.18795C46.3791 7.23077 48.7454 11.4667 46.4251 14.7384C45.6594 15.4906 35.1042 25.0206 28.0433 31.3803C27.6012 31.6255 26.7786 32.0026 25.8882 32.2305C25.1313 32.3252 24.1333 32.3286 23.3608 32.1926C22.8747 31.9598 22.524 31.5392 22.2979 30.9162C22.4326 30.5764 22.6878 30.1392 23.1151 29.5984L23.1801 29.5155C23.8591 28.8359 28.5118 24.8886 31.394 22.4699L30.4102 21.2508C24.1063 26.5421 22.3967 28.0257 21.9241 28.619L21.9099 28.6073C21.7819 28.7696 21.5809 29.0258 21.375 29.3407C20.0805 29.3041 18.1977 28.9367 17.8693 28.1963C17.6939 27.8012 18.0027 27.0967 18.7163 26.2645L18.8422 26.1174C19.6492 25.3348 24.1855 21.4871 27.0155 19.1118L26.0318 17.8928C19.8124 23.1136 18.0643 24.6276 17.5653 25.2367L17.5511 25.2243C17.3425 25.4674 17.1604 25.7057 17.0027 25.9385C15.7623 25.8618 14.157 25.5061 13.8612 24.8389C13.6919 24.4577 13.9939 23.7746 14.6892 22.9644L14.8117 22.8214C15.6025 22.0548 20.0507 18.2851 22.8239 15.9596L21.8409 14.7398C15.7555 19.8439 14.0338 21.3344 13.5389 21.9374L13.5247 21.9243C13.2728 22.2178 13.0616 22.503 12.8849 22.7814C11.6391 22.7296 9.98235 22.3621 9.69325 21.7143C9.52941 21.3482 9.82122 20.6866 10.4922 19.8999L10.6107 19.7604C11.3778 19.0124 15.6912 15.3345 18.3791 13.0663L17.3926 11.85C11.505 16.8188 9.82528 18.2816 9.33848 18.8763L9.32426 18.8632C9.18953 19.0213 9.06631 19.1767 8.95392 19.3308L9.09948 19.0213C9.0372 18.9909 2.86996 15.923 1.72846 11.1628C1.22745 9.07488 1.78127 6.91789 3.37301 4.75193C5.36895 2.03895 8.72101 1.08236 13.3378 1.90772C20.9255 3.2649 28.5795 8.8663 29.0853 10.5536C29.3446 11.4197 29.327 12.5372 28.5003 13.0767C27.025 14.0381 23.2274 13.0373 16.9952 7.34404L15.9627 8.52027C24.0798 15.9354 27.8239 15.3918 29.3337 14.4076C30.6167 13.5712 31.1008 11.8777 30.566 10.0929C29.7677 7.42761 21.2572 1.72193 13.6059 0.353692C8.44207 -0.571816 4.47592 0.623056 2.13672 3.80501C0.251819 6.3688 -0.390022 8.97266 0.228122 11.5441C1.48066 16.7525 7.48946 19.9676 8.33848 20.3985C8.04058 21.1162 8.02095 21.7751 8.28567 22.369C8.92751 23.807 11.0135 24.2125 12.2836 24.325C12.2356 24.7374 12.2911 25.1269 12.4529 25.4916C13.0683 26.8757 15.0047 27.3226 16.3202 27.4662C16.2247 27.9587 16.2701 28.4208 16.461 28.849C17.134 30.3616 19.3642 30.7732 20.6872 30.883C20.6858 30.8906 20.6838 30.8982 20.6824 30.9058L20.675 30.9079C20.6763 30.9127 20.6777 30.9162 20.679 30.921C20.5775 31.4218 20.6019 31.9446 20.872 32.4364C21.2681 33.1574 22.0683 33.5332 22.9329 33.719C23.4339 33.9165 23.9688 34.0008 24.5071 34.0001C25.0622 34.0001 25.6181 33.9151 26.1394 33.7901H26.1401C27.6046 33.4385 28.7907 32.7644 28.8747 32.7161L28.9451 32.676L29.0054 32.6215C29.0054 32.6215 33.6459 28.4422 38.2823 24.2539C40.6012 22.1591 42.9187 20.0629 44.6553 18.4847C45.5247 17.6945 46.2484 17.0349 46.7542 16.5701C47.0094 16.3353 47.2098 16.1502 47.3453 16.0224C47.4461 15.9278 47.5558 15.8249 47.6425 15.7047L47.6472 15.7088C50.6025 11.6069 47.8131 6.60502 47.6926 6.39436Z" fill="white"/>
<path d="M43.8361 6.48143C45.5551 6.48143 46.9532 5.05518 46.9532 3.30224C46.9532 1.5493 45.5551 0.123047 43.8361 0.123047C42.1178 0.123047 40.7197 1.5493 40.7197 3.30224C40.7197 5.05518 42.1178 6.48143 43.8361 6.48143ZM43.8361 1.70125C44.7014 1.70125 45.4055 2.41955 45.4055 3.30155C45.4055 4.18354 44.7014 4.90185 43.8361 4.90185C42.9708 4.90185 42.2674 4.18354 42.2674 3.30155C42.2674 2.41955 42.9708 1.70125 43.8361 1.70125Z" fill="white"/>
</g>
<defs>
<clipPath id="clip0_1_352">
<rect width="150" height="32" fill="white" transform="translate(67)"/>
</clipPath>
<clipPath id="clip1_1_352">
<rect width="49" height="34" fill="white"/>
</clipPath>
</defs>
</svg>
