<svg width="122" height="121" viewBox="0 0 122 121" fill="none" xmlns="http://www.w3.org/2000/svg">
<circle cx="61.0002" cy="60.4963" r="60.4963" fill="#7E7BFF"/>
<g clip-path="url(#clip0_1_205)">
<path d="M67.3438 65.8501C67.8443 65.8501 68.25 65.4471 68.25 64.9501C68.25 64.453 67.8443 64.05 67.3438 64.05C66.8432 64.05 66.4375 64.453 66.4375 64.9501C66.4375 65.4471 66.8432 65.8501 67.3438 65.8501Z" fill="white"/>
<path d="M67.3438 69.45C67.8443 69.45 68.25 69.0471 68.25 68.55C68.25 68.053 67.8443 67.65 67.3438 67.65C66.8432 67.65 66.4375 68.053 66.4375 68.55C66.4375 69.0471 66.8432 69.45 67.3438 69.45Z" fill="white"/>
<path d="M67.3438 73.05C67.8443 73.05 68.25 72.6471 68.25 72.15C68.25 71.6529 67.8443 71.25 67.3438 71.25C66.8432 71.25 66.4375 71.6529 66.4375 72.15C66.4375 72.6471 66.8432 73.05 67.3438 73.05Z" fill="white"/>
<path d="M67.3438 76.65C67.8443 76.65 68.25 76.247 68.25 75.75C68.25 75.2529 67.8443 74.85 67.3438 74.85C66.8432 74.85 66.4375 75.2529 66.4375 75.75C66.4375 76.247 66.8432 76.65 67.3438 76.65Z" fill="white"/>
<path d="M85.4688 61.8H73.6875C73.4471 61.8 73.2166 61.8949 73.0467 62.0637C72.8767 62.2324 72.7812 62.4614 72.7812 62.7V71.808C72.7818 71.9852 72.8349 72.1583 72.9341 72.3056C73.0332 72.4529 73.1739 72.5678 73.3386 72.636L79.5781 75.228C79.6937 75.2789 79.8187 75.3052 79.9452 75.3052C80.0716 75.3052 80.1966 75.2789 80.3122 75.228L85.8539 72.6C86.0097 72.5274 86.1414 72.4123 86.2337 72.268C86.3259 72.1238 86.375 71.9564 86.375 71.7855V62.7C86.375 62.4614 86.2795 62.2324 86.1096 62.0637C85.9396 61.8949 85.7091 61.8 85.4688 61.8ZM84.5625 71.25L79.8908 73.428L74.5938 71.2096V63.6H84.5625V71.25Z" fill="white"/>
<path d="M77.3125 69H78.6719V70.35C78.6719 70.5886 78.7674 70.8176 78.9373 70.9863C79.1073 71.1551 79.3378 71.25 79.5781 71.25C79.8185 71.25 80.049 71.1551 80.2189 70.9863C80.3889 70.8176 80.4844 70.5886 80.4844 70.35V69H81.8438C82.0841 69 82.3146 68.9051 82.4846 68.7363C82.6545 68.5676 82.75 68.3386 82.75 68.1C82.75 67.8613 82.6545 67.6323 82.4846 67.4636C82.3146 67.2948 82.0841 67.2 81.8438 67.2H80.4844V65.85C80.4844 65.6113 80.3889 65.3823 80.2189 65.2136C80.049 65.0448 79.8185 64.95 79.5781 64.95C79.3378 64.95 79.1073 65.0448 78.9373 65.2136C78.7674 65.3823 78.6719 65.6113 78.6719 65.85V67.2H77.3125C77.0721 67.2 76.8416 67.2948 76.6717 67.4636C76.5017 67.6323 76.4062 67.8613 76.4062 68.1C76.4062 68.3386 76.5017 68.5676 76.6717 68.7363C76.8416 68.9051 77.0721 69 77.3125 69Z" fill="white"/>
<path d="M90 62.025C90 53.6865 83.765 47.445 76.3836 44.97L76.1163 44.034C76.1052 43.9714 76.0733 43.9143 76.0257 43.8719C75.978 43.8294 75.9173 43.8041 75.8535 43.8C75.7839 43.8033 75.7172 43.8285 75.6631 43.872L70.1894 47.922C70.0997 47.9872 70.0372 48.0827 70.0139 48.1906C69.9905 48.2984 70.0078 48.411 70.0625 48.507L71.5941 50.757L67.3438 62.043C67.3075 62.178 67.3438 62.25 67.371 62.25C67.3981 62.25 67.4571 62.214 67.5205 62.142L75.8081 54.7755C75.8863 54.6772 75.9371 54.5601 75.9553 54.4361C75.9736 54.3121 75.9588 54.1856 75.9124 54.069L74.4896 50.919L77.9152 51.693H78.0013C78.1689 51.693 78.2596 51.558 78.2006 51.36L76.9772 47.0805C83.1669 49.5825 88.1875 54.9735 88.1875 62.0295C88.1875 62.0295 88.1875 77.7795 88.1875 80.7045C88.1875 80.9432 88.283 81.1722 88.453 81.3409C88.6229 81.5097 88.8534 81.6045 89.0938 81.6045C89.3341 81.6045 89.5646 81.5097 89.7346 81.3409C89.9045 81.1722 90 80.9432 90 80.7045C90 77.775 90 62.025 90 62.025ZM71.4899 56.2065L73.035 52.098L73.9413 54.0465L71.4899 56.2065ZM74.8974 49.1775C74.5761 49.1048 74.241 49.1205 73.928 49.2227C73.6151 49.325 73.3361 49.5101 73.1211 49.758V49.758L72.3281 48.57L74.9789 46.617L75.7628 49.3665L74.8974 49.1775Z" fill="white"/>
<path d="M67.3437 45.6C69.4946 45.6 71.5972 44.9666 73.3856 43.7799C75.174 42.5932 76.5678 40.9064 77.3909 38.933C78.214 36.9595 78.4294 34.788 78.0098 32.693C77.5902 30.598 76.5544 28.6737 75.0335 27.1633C73.5126 25.6528 71.5749 24.6242 69.4654 24.2075C67.3558 23.7908 65.1692 24.0047 63.1821 24.8221C61.1949 25.6395 59.4965 27.0238 58.3015 28.7998C57.1066 30.5759 56.4688 32.664 56.4688 34.8C56.4688 37.6643 57.6145 40.4114 59.654 42.4368C61.6934 44.4622 64.4595 45.6 67.3437 45.6ZM67.3437 25.8C69.1361 25.8 70.8883 26.3278 72.3786 27.3168C73.8689 28.3057 75.0305 29.7113 75.7164 31.3559C76.4023 33.0004 76.5818 34.81 76.2321 36.5558C75.8824 38.3016 75.0193 39.9053 73.7519 41.164C72.4845 42.4226 70.8697 43.2798 69.1118 43.6271C67.3538 43.9743 65.5316 43.7961 63.8757 43.1149C62.2197 42.4337 60.8044 41.2802 59.8086 39.8001C58.8128 38.3201 58.2812 36.58 58.2812 34.8C58.2812 32.4131 59.236 30.1239 60.9356 28.436C62.6351 26.7482 64.9402 25.8 67.3437 25.8V25.8Z" fill="white"/>
<path d="M55.5625 75.3H42.875C42.6346 75.3 42.4041 75.3949 42.2342 75.5637C42.0642 75.7324 41.9688 75.9614 41.9688 76.2001C41.9688 76.4387 42.0642 76.6677 42.2342 76.8364C42.4041 77.0052 42.6346 77.1001 42.875 77.1001H55.5625C55.8029 77.1001 56.0334 77.0052 56.2033 76.8364C56.3733 76.6677 56.4688 76.4387 56.4688 76.2001C56.4688 75.9614 56.3733 75.7324 56.2033 75.5637C56.0334 75.3949 55.8029 75.3 55.5625 75.3Z" fill="white"/>
<path d="M47.4062 73.5H51.0312C51.2716 73.5 51.5021 73.4051 51.6721 73.2363C51.842 73.0676 51.9375 72.8386 51.9375 72.6C51.9375 72.3613 51.842 72.1323 51.6721 71.9636C51.5021 71.7948 51.2716 71.7 51.0312 71.7H47.4062C47.1659 71.7 46.9354 71.7948 46.7654 71.9636C46.5955 72.1323 46.5 72.3613 46.5 72.6C46.5 72.8386 46.5955 73.0676 46.7654 73.2363C46.9354 73.4051 47.1659 73.5 47.4062 73.5Z" fill="white"/>
<path d="M61.8427 56.526C63.3699 57.3245 64.5285 58.6766 65.078 60.3015L67.1488 62.1465C67.2122 62.2185 67.262 62.2545 67.2983 62.2545C67.3345 62.2545 67.3617 62.1825 67.3255 62.0475L63.0842 50.748L64.6158 48.498C64.6787 48.4034 64.7033 48.2888 64.6848 48.1771C64.6663 48.0653 64.6061 47.9646 64.5161 47.8949L59.0424 43.8449C58.9884 43.8011 58.9217 43.7758 58.852 43.7729C58.7874 43.7761 58.7257 43.8009 58.6771 43.8434C58.6285 43.886 58.5959 43.9436 58.5847 44.0069L58.3174 44.9384C56.5074 45.5417 54.781 46.3687 53.1789 47.4C53.9801 47.4812 54.7535 47.7363 55.4445 48.147C56.1847 47.7415 56.9489 47.3808 57.7328 47.0669L57.0124 49.533C57.482 50.0915 57.8625 50.7183 58.1406 51.3915L60.1933 50.9415L59.3414 52.8C60.5666 53.7335 61.4462 55.0437 61.8427 56.526V56.526ZM63.202 56.2065L60.7733 54.042L61.6569 52.0935L63.202 56.2065ZM59.7945 49.173L58.9472 49.3665L59.7311 46.6169L62.3592 48.5699L61.5844 49.74C61.3694 49.492 61.0904 49.3069 60.7775 49.2047C60.4645 49.1024 60.1294 49.0867 59.8081 49.1595L59.7945 49.173Z" fill="white"/>
<path d="M66.4376 66.3C66.4376 65.5839 66.1512 64.8971 65.6413 64.3908C65.1315 63.8844 64.4399 63.6 63.7189 63.6H63.6781C63.7041 63.3759 63.7177 63.1505 63.7189 62.925C63.7189 60.423 62.2326 58.326 60.2661 57.8535C59.9897 55.716 58.6212 54.0015 56.8676 53.5785C56.5459 51.1035 54.7651 49.2 52.6173 49.2C51.9255 49.2213 51.2506 49.4171 50.656 49.769C50.0615 50.1209 49.5669 50.6173 49.2189 51.2115C48.8708 50.6173 48.3763 50.1209 47.7817 49.769C47.1872 49.4171 46.5122 49.2213 45.8204 49.2C43.6726 49.2 41.8918 51.1035 41.5701 53.5785C39.8165 54.0015 38.4481 55.716 38.1717 57.8535C36.2051 58.326 34.7189 60.423 34.7189 62.925C34.7199 63.1505 34.7335 63.3759 34.7597 63.6H34.7189C34.0532 63.6028 33.4117 63.8482 32.916 64.2894C32.4203 64.7307 32.1049 65.3372 32.0295 65.9941C31.9541 66.6509 32.1239 67.3124 32.5069 67.8531C32.8898 68.3939 33.4592 68.7763 34.1072 68.928L35.8834 78.9C36.0918 80.4255 37.3017 81.6 38.6293 81.6H59.8084C61.1361 81.6 62.3414 80.403 62.5272 78.9L64.3079 68.9145C64.9084 68.7821 65.4459 68.4515 65.8327 67.9767C66.2195 67.5018 66.4328 66.9107 66.4376 66.3ZM61.9064 62.925C61.9051 63.151 61.8869 63.3766 61.852 63.6H56.9764C56.9412 63.3766 56.923 63.151 56.922 62.925C56.922 61.062 58.0412 59.55 59.4142 59.55C60.7872 59.55 61.9064 61.062 61.9064 62.925ZM43.3826 63.6C43.3475 63.3766 43.3293 63.151 43.3283 62.925C43.3283 61.062 44.4475 59.55 45.8204 59.55C47.1934 59.55 48.3126 61.062 48.3126 62.925C48.3118 63.151 48.2936 63.3766 48.2583 63.6H43.3826ZM49.2189 55.275C50.4015 55.275 51.3893 56.3955 51.6431 57.8895C50.6316 58.1978 49.769 58.8638 49.2189 59.7615C48.6691 58.8636 47.8064 58.1974 46.7947 57.8895C47.0484 56.4 48.0408 55.275 49.2189 55.275ZM50.1795 63.6C50.1442 63.3766 50.126 63.151 50.1251 62.925C50.1251 61.062 51.2443 59.55 52.6173 59.55C53.9903 59.55 55.1095 61.062 55.1095 62.925C55.1082 63.151 55.09 63.3766 55.0551 63.6H50.1795ZM58.44 57.8895C57.4284 58.1978 56.5659 58.8638 56.0158 59.7615C55.4656 58.8638 54.6031 58.1978 53.5915 57.8895C53.8453 56.4 54.8376 55.275 56.0158 55.275C57.1939 55.275 58.1862 56.4 58.44 57.8895ZM52.6173 51C53.8 51 54.7878 52.1205 55.0461 53.6145C54.0309 53.9255 53.1664 54.5967 52.6173 55.5C52.0672 54.6023 51.2046 53.9363 50.1931 53.6279C50.4468 52.1204 51.4392 51 52.6173 51ZM45.8204 51C46.9986 51 47.9909 52.1205 48.2447 53.6145C47.2311 53.9265 46.3684 54.5975 45.8204 55.5C45.2692 54.6015 44.4049 53.9353 43.3917 53.6279C43.65 52.1204 44.6423 51 45.8204 51ZM42.422 55.275C43.6047 55.275 44.5925 56.3955 44.8508 57.8895C43.8377 58.1972 42.9736 58.8633 42.422 59.7615C41.8725 58.8633 41.0097 58.197 39.9978 57.8895C40.2515 56.4 41.2439 55.275 42.422 55.275ZM36.5314 62.925C36.5314 61.062 37.6506 59.55 39.0236 59.55C40.3965 59.55 41.5158 61.062 41.5158 62.925C41.5149 63.151 41.4967 63.3766 41.4614 63.6H36.5858C36.5504 63.3766 36.5322 63.151 36.5314 62.925ZM60.76 78.6345C60.6693 79.3005 60.18 79.8 59.8084 79.8H38.6293C38.2578 79.8 37.7729 79.3005 37.6733 78.5985L35.9604 69H62.4773L60.76 78.6345ZM63.7189 67.2H34.7189C34.4785 67.2 34.248 67.1051 34.0781 66.9363C33.9081 66.7676 33.8126 66.5386 33.8126 66.3C33.8126 66.0613 33.9081 65.8323 34.0781 65.6636C34.248 65.4948 34.4785 65.4 34.7189 65.4H63.7189C63.9592 65.4 64.1897 65.4948 64.3597 65.6636C64.5297 65.8323 64.6251 66.0613 64.6251 66.3C64.6251 66.5386 64.5297 66.7676 64.3597 66.9363C64.1897 67.1051 63.9592 67.2 63.7189 67.2Z" fill="white"/>
<path d="M53.3467 41.919C54.6744 39.876 54.9961 37.419 54.3028 34.5885C54.253 34.3816 54.131 34.199 53.9585 34.073C53.7859 33.9469 53.574 33.8857 53.3603 33.9C53.1882 33.9 49.3638 34.2105 46.8353 36.888C47.051 37.6726 47.2025 38.4732 47.2885 39.282C47.4091 39.0636 47.5438 38.8532 47.6917 38.652C49.11 36.7395 51.4753 36.051 52.6761 35.8125C53.0511 37.5669 52.7366 39.3973 51.7971 40.929C50.5736 42.8145 48.4938 43.827 47.1208 44.3175C47.0211 44.9415 46.8927 45.5775 46.7357 46.2255C46.7357 46.266 46.7085 46.302 46.6994 46.338C48.1041 45.9735 51.4617 44.817 53.3467 41.919Z" fill="white"/>
<path d="M44.0757 46.5H44.1256C44.3294 46.5006 44.5274 46.433 44.6877 46.308C44.848 46.1831 44.9613 46.0082 45.0092 45.8115C46.1375 41.1315 45.639 37.14 43.5275 33.945C40.129 28.806 33.8125 27.6585 33.5632 27.6C33.3285 27.5606 33.0876 27.6145 32.8926 27.7501C32.6976 27.8857 32.5641 28.092 32.521 28.3245C31.3928 33.9 32.0996 38.4 34.619 41.613C38.1307 46.1175 43.8356 46.5 44.0757 46.5ZM34.107 29.598C35.8379 30.0795 39.7212 31.497 41.9914 34.9305C43.5365 37.2345 44.0757 40.065 43.6271 43.35L41.3615 40.1235C41.2239 39.9277 41.0137 39.7943 40.777 39.7525C40.5403 39.7108 40.2966 39.7641 40.0996 39.9007C39.9025 40.0374 39.7681 40.2462 39.7261 40.4812C39.684 40.7162 39.7377 40.9582 39.8753 41.154L42.091 44.304C39.7132 43.718 37.5906 42.3822 36.0418 40.497C34.0028 37.869 33.3593 34.206 34.1251 29.598H34.107Z" fill="white"/>
<path d="M38.3438 38.4C38.8443 38.4 39.25 37.997 39.25 37.5C39.25 37.0029 38.8443 36.6 38.3438 36.6C37.8432 36.6 37.4375 37.0029 37.4375 37.5C37.4375 37.997 37.8432 38.4 38.3438 38.4Z" fill="white"/>
</g>
<defs>
<clipPath id="clip0_1_205">
<rect width="58" height="72" fill="white" transform="translate(32 24)"/>
</clipPath>
</defs>
</svg>
