<svg width="122" height="121" viewBox="0 0 122 121" fill="none" xmlns="http://www.w3.org/2000/svg">
<circle cx="60.947" cy="60.4963" r="60.4963" fill="#64BEFF"/>
<g clip-path="url(#clip0_1_152)">
<path d="M49.3083 50.4528C49.2386 50.3301 49.1731 50.2062 49.1097 50.0792C48.6396 49.1312 48.3733 48.0796 48.3321 47.0227C48.329 46.9298 48.3268 46.8369 48.3268 46.7441C48.3237 43.1783 48.3237 39.6116 48.3268 36.0448C48.33 34.8555 48.6174 33.6662 49.1614 32.6082C49.8798 31.2118 51.0483 30.0535 52.4502 29.3553C53.4327 28.8653 54.5272 28.5995 55.6185 28.5845C55.6492 28.5845 55.6798 28.5834 55.7104 28.5834C57.8308 28.5824 59.9521 28.5824 62.0725 28.5834C63.2462 28.5866 64.4252 28.876 65.4732 29.4268C66.816 30.1325 67.9326 31.2652 68.6267 32.6189C69.1529 33.6448 69.4392 34.7925 69.455 35.953C69.4561 35.9839 69.4561 36.0138 69.4561 36.0448C69.4582 39.6116 69.4582 43.1783 69.4561 46.7441C69.4529 48.0305 69.1106 49.3244 68.4736 50.4528C71.5246 52.3489 74.5778 54.2417 77.6246 56.1431C79.0899 57.059 80.2975 58.3796 81.0845 59.9298C81.7712 61.2803 82.1315 62.7994 82.1336 64.3068C82.1378 71.26 82.1336 78.2132 82.1336 85.1663C82.1325 85.983 81.8135 86.7869 81.2588 87.3751C80.682 87.9869 79.8654 88.3541 79.0149 88.368C79.0012 88.368 78.9874 88.368 78.9737 88.368C65.5884 88.3883 52.203 88.368 38.8176 88.368C37.9809 88.3669 37.1527 88.0178 36.5642 87.4168C36.0159 86.8552 35.6842 86.0866 35.6525 85.2987C35.6504 85.2581 35.6493 85.2165 35.6493 85.1759C35.6388 78.2164 35.6377 71.2568 35.6493 64.2962C35.6535 62.6062 36.1068 60.9194 36.9551 59.4568C37.7253 58.1288 38.8187 56.995 40.0917 56.1847C40.1192 56.1676 40.1467 56.1505 40.1741 56.1334L49.3083 50.4528V50.4528ZM50.6236 52.1418C49.5059 52.8368 48.3881 53.5317 47.2704 54.2257V60.6621C48.3554 60.8159 49.3939 61.3123 50.1989 62.0884C51.062 62.9211 51.6315 64.0517 51.7878 65.2495C51.7994 65.3317 51.8079 65.415 51.8153 65.4983C52.0297 68.0818 52.2463 70.6664 52.4544 73.2521C52.502 73.8702 52.2727 74.5012 51.8364 74.9378C51.4455 75.3296 50.8993 75.557 50.3489 75.557H49.3833C49.2914 75.5527 49.2682 75.5549 49.1773 75.5367C48.8054 75.462 48.4843 75.1716 48.3723 74.8001C48.2518 74.3987 48.3871 73.9354 48.7135 73.6642C48.873 73.5318 49.0727 73.4475 49.2798 73.4272C49.3146 73.424 49.3484 73.424 49.3833 73.4219C49.7045 73.4219 50.0267 73.4229 50.3479 73.4219C50.1471 70.8383 49.9284 68.2558 49.7087 65.6733C49.659 65.0969 49.453 64.5332 49.115 64.0656C48.5582 63.2926 47.6507 62.793 46.6967 62.7492C46.6492 62.7471 46.6027 62.746 46.5562 62.746C46.327 62.746 46.0967 62.746 45.8663 62.746C45.1247 62.7492 44.3862 63.0247 43.8221 63.5104C43.1924 64.0528 42.7878 64.8556 42.7181 65.6787C42.5036 68.259 42.2892 70.8404 42.08 73.4219H43.0445L43.1481 73.4272C43.1819 73.4325 43.2167 73.4357 43.2506 73.4432C43.5559 73.5041 43.8295 73.709 43.9763 73.9866C44.139 74.2941 44.139 74.6848 43.9763 74.9933C43.8295 75.2698 43.5559 75.4759 43.2506 75.5367C43.1597 75.5549 43.1365 75.5527 43.0445 75.557C42.7213 75.557 42.3969 75.5581 42.0737 75.557C41.5243 75.5549 40.9813 75.3286 40.5914 74.9378C40.1572 74.5022 39.9259 73.8702 39.9734 73.2521C40.1826 70.6664 40.397 68.0818 40.6126 65.4983C40.7214 64.2182 41.2982 62.9916 42.2173 62.0991C43.016 61.3251 44.0545 60.8169 45.1575 60.6611V55.5388C43.8601 56.3448 42.5639 57.1519 41.2686 57.9601C39.7156 58.9305 38.5356 60.5031 38.0369 62.2966C37.8563 62.9478 37.7643 63.6247 37.7622 64.3004C37.7506 71.2579 37.7284 78.2153 37.7622 85.1727C37.7654 85.6019 38.0475 86.0193 38.4584 86.1698C38.5715 86.2115 38.6909 86.2318 38.8113 86.2328C52.1977 86.2947 65.5852 86.2947 78.9716 86.2328C79.3118 86.2307 79.6435 86.0524 79.8368 85.7674C79.9552 85.5923 80.0196 85.3809 80.0207 85.1695C80.0312 78.2132 80.0291 71.2568 80.0207 64.3015C80.0164 63.0471 79.6995 61.8098 79.1089 60.7219C78.5068 59.6116 77.6236 58.6647 76.565 57.9921C76.5439 57.9782 76.5227 57.9643 76.5005 57.9515L72.6254 55.5409V64.0005C73.0501 64.1531 73.4431 64.3944 73.7696 64.7115C74.245 65.1759 74.5725 65.7929 74.6887 66.4505C74.8398 67.3025 74.6317 68.2121 74.1246 68.9103C73.6587 69.5508 72.9508 70.0077 72.1775 70.1604C71.3609 70.3216 70.4851 70.1422 69.7962 69.6714C69.062 69.1697 68.5507 68.3487 68.4292 67.453C68.3214 66.6577 68.5211 65.8217 68.9849 65.162C69.3599 64.6293 69.9019 64.2214 70.5125 64.0005V54.2278L67.1604 52.1428C66.6723 52.6136 66.1198 53.0172 65.5229 53.3364C65.4035 53.4004 65.283 53.4602 65.1605 53.5179C65.1563 53.5275 65.1531 53.5382 65.1489 53.5488L59.8666 66.3598C59.8518 66.3908 59.838 66.4239 59.8222 66.4538C59.6426 66.7922 59.2749 67.0164 58.8914 67.0164C58.5122 67.0164 58.1424 66.7954 57.9607 66.4538C57.9449 66.4239 57.9311 66.3908 57.9163 66.3598L52.634 53.5488C52.6298 53.5382 52.6266 53.5275 52.6224 53.5179C52.5168 53.4688 52.4122 53.4165 52.3097 53.3631C51.6938 53.0385 51.1254 52.6254 50.6236 52.1418V52.1418ZM71.5658 65.9488C71.1105 65.9509 70.6763 66.2733 70.5506 66.7303C70.4787 66.9939 70.5104 67.2843 70.6393 67.5245C70.8189 67.8587 71.1823 68.0829 71.5658 68.0839C72.0602 68.0861 72.5356 67.7007 72.6138 67.1765C72.6476 66.9459 72.6054 66.7025 72.4923 66.4975C72.3106 66.1698 71.9504 65.952 71.5753 65.9488C71.5721 65.9488 71.569 65.9488 71.5658 65.9488V65.9488ZM55.7221 54.2054H55.1938L58.8914 63.1731L62.5891 54.2054H62.0608C59.9479 54.2075 57.835 54.2075 55.7221 54.2054ZM67.2639 35.1469C66.0648 35.7298 64.8499 36.2807 63.6212 36.7899C62.6039 37.2116 61.5717 37.6141 60.5173 37.9066C59.9933 38.0529 59.4619 38.1789 58.9158 38.1917L58.8112 38.1885C58.7763 38.1842 58.7404 38.1821 58.7066 38.1757C58.3262 38.1073 57.9966 37.8159 57.8815 37.439C57.8614 37.3707 57.8477 37.3013 57.8403 37.2309C57.8371 37.1956 57.8371 37.1593 57.835 37.1241V35.654C56.4521 36.3277 55.0533 36.949 53.6123 37.4518C52.8496 37.7177 52.0741 37.9525 51.2786 38.0924C51.0282 38.1372 50.7757 38.1703 50.5222 38.1885L50.5127 38.1895C50.4873 38.1895 50.463 38.1917 50.4387 38.1917C50.4366 41.041 50.4377 43.8915 50.4398 46.7409C50.4419 47.8373 50.7842 48.9198 51.4054 49.8091C52.0477 50.7304 52.9901 51.4382 54.0476 51.7959C54.5832 51.9763 55.1484 52.0692 55.7136 52.0702H55.7231H62.0598H62.0693C63.187 52.0681 64.3048 51.6955 65.2038 51.0229C66.1039 50.3493 66.7811 49.3821 67.1097 48.3006C67.2628 47.7988 67.341 47.2725 67.3431 46.7494C67.3526 43.1826 67.3452 39.6158 67.3431 36.049C67.3421 35.7458 67.3157 35.4448 67.2639 35.1469V35.1469ZM62.0608 30.7186H55.7221C54.598 30.7197 53.4824 31.0912 52.5791 31.7659C51.6737 32.4438 50.9944 33.4185 50.668 34.5042C50.5179 35.0049 50.4408 35.5291 50.4398 36.049V36.0533C51.061 36.001 51.6674 35.8355 52.2643 35.6508C53.6768 35.2142 55.0396 34.6227 56.3908 33.9833C57.0648 33.6651 57.7389 33.332 58.3907 32.9819L58.3939 32.9797C58.4773 32.9402 58.4963 32.9274 58.5851 32.8997C58.6516 32.8794 58.7192 32.8666 58.7879 32.8591C58.8566 32.8527 58.9263 32.8559 58.995 32.8591C59.0298 32.8644 59.0637 32.8676 59.0975 32.8751C59.4693 32.9498 59.7905 33.2402 59.9025 33.6118C59.9226 33.679 59.9363 33.7473 59.9426 33.8167C59.9458 33.852 59.9458 33.8872 59.9479 33.9213V35.8515C60.7307 35.6337 61.4956 35.3466 62.2542 35.0444C63.6054 34.5053 64.9323 33.9043 66.2455 33.2723C66.3279 33.2328 66.4103 33.1922 66.4927 33.1527C66.4441 33.0758 66.3934 33.0011 66.3406 32.9274C65.6834 32.0093 64.7295 31.3122 63.6582 30.9695C63.1437 30.804 62.6017 30.7186 62.0608 30.7186V30.7186Z" fill="white"/>
</g>
<defs>
<clipPath id="clip0_1_152">
<rect width="67.6135" height="85.4065" fill="white" transform="translate(28.9193 17.7932)"/>
</clipPath>
</defs>
</svg>
