<?xml version="1.0" encoding="utf-8"?>

<svg version="1.1" id="Layer_1" xmlns="http://www.w3.org/2000/svg" xmlns:xlink="http://www.w3.org/1999/xlink" x="0px" y="0px"
	 viewBox="0 0 107 106" style="enable-background:new 0 0 107 106;" xml:space="preserve">
<style type="text/css">
	.st0{fill:#FFFFFF;}
	.st1{fill:#4096FC;}
</style>
<path class="st0" d="M29.77,9.96c13.28-13.28,34.81-13.28,48.08,0L96.7,28.8c13.28,13.28,13.28,34.81,0,48.08L77.86,95.73
	c-13.28,13.28-34.81,13.28-48.08,0L10.93,76.89c-13.28-13.28-13.28-34.81,0-48.08L29.77,9.96z"/>
<path class="st1" d="M49.9,17.23c18.57-2.79,35.88,10,38.68,28.57l0.69,4.6c2.79,18.57-10,35.88-28.57,38.67l-4.6,0.69
	c-18.57,2.79-35.88-10-38.68-28.57l-0.69-4.6c-2.79-18.57,10-35.88,28.57-38.68L49.9,17.23z"/>
<path class="st0" d="M57.13,42.93h-8.26c-1.53,0-2.77-1.34-2.77-2.99c0-1.65,1.24-2.99,2.77-2.99h8.26c1.53,0,2.77,1.34,2.77,2.99
	C59.9,41.58,58.66,42.93,57.13,42.93z M48.87,38.35c-0.75,0-1.36,0.71-1.36,1.58c0,0.87,0.61,1.58,1.36,1.58h8.26
	c0.75,0,1.36-0.71,1.36-1.58c0-0.87-0.61-1.58-1.36-1.58H48.87z"/>
<path class="st0" d="M62.56,70.06H43.44c-2.06,0-3.73-1.67-3.73-3.71V42.94c0-2.05,1.67-3.71,3.73-3.71h3.76v1.41h-3.76
	c-1.28,0-2.32,1.03-2.32,2.3v23.41c0,1.27,1.04,2.3,2.32,2.3h19.12c1.28,0,2.32-1.03,2.32-2.3V42.94c0-1.27-1.04-2.3-2.32-2.3h-3.76
	v-1.41h3.76c2.06,0,3.73,1.67,3.73,3.71v23.41C66.29,68.39,64.62,70.06,62.56,70.06z"/>
<path class="st0" d="M60.58,53.21H45.42c-0.39,0-0.71,0.32-0.71,0.7c0,0.39,0.32,0.7,0.71,0.7h15.16c0.39,0,0.71-0.31,0.71-0.7
	C61.29,53.53,60.97,53.21,60.58,53.21z"/>
<path class="st0" d="M60.58,57.98H45.42c-0.39,0-0.71,0.32-0.71,0.7c0,0.39,0.32,0.7,0.71,0.7h15.16c0.39,0,0.71-0.31,0.71-0.7
	C61.29,58.3,60.97,57.98,60.58,57.98z"/>
<path class="st0" d="M60.58,62.75H45.42c-0.39,0-0.71,0.32-0.71,0.71c0,0.39,0.32,0.7,0.71,0.7h15.16c0.39,0,0.71-0.32,0.71-0.7
	C61.29,63.07,60.97,62.75,60.58,62.75z"/>
<path class="st0" d="M56.37,45.99h-1.62v-1.61c0-0.27-0.22-0.49-0.5-0.49h-2.49c-0.27,0-0.5,0.22-0.5,0.49v1.61h-1.62
	c-0.27,0-0.5,0.22-0.5,0.49v2.48c0,0.27,0.22,0.49,0.5,0.49h1.62v1.61c0,0.27,0.22,0.49,0.5,0.49h2.49c0.27,0,0.5-0.22,0.5-0.49
	v-1.61h1.62c0.27,0,0.5-0.22,0.5-0.49v-2.48C56.86,46.21,56.64,45.99,56.37,45.99z M55.87,48.47h-1.6c-0.29,0-0.52,0.23-0.52,0.52
	v1.59h-1.5v-1.59c0-0.29-0.23-0.52-0.52-0.52h-1.6v-1.49h1.6c0.29,0,0.52-0.23,0.52-0.52v-1.59h1.5v1.59c0,0.29,0.23,0.52,0.52,0.52
	h1.6V48.47z"/>
</svg>
