<svg width="121" height="121" viewBox="0 0 121 121" fill="none" xmlns="http://www.w3.org/2000/svg">
<circle cx="60.4963" cy="60.4963" r="60.4963" fill="#BCB6FF"/>
<path d="M79.0126 87C78.8557 87 78.6999 86.9626 78.5586 86.8888L71.8886 83.3728C71.4212 83.1261 71.2463 82.5546 71.4963 82.0954C71.7473 81.6373 72.3268 81.4634 72.7964 81.71L78.6169 84.779L86.5289 70.1499L84.0967 68.8968C83.6271 68.6557 83.4466 68.0852 83.6932 67.6239C83.9387 67.1625 84.5181 66.983 84.9889 67.2274L88.2752 68.921C88.5016 69.0378 88.6708 69.2382 88.7459 69.4771C88.821 69.7172 88.7963 69.9771 88.6764 70.1984L79.8599 86.5001C79.74 86.7214 79.536 86.8866 79.2917 86.9593C79.1998 86.9868 79.1067 87 79.0126 87ZM69.8038 73.6384C69.6514 73.6384 69.4967 73.6032 69.3521 73.5272C68.8847 73.2817 68.7088 72.7101 68.9587 72.251L74.1964 62.63C74.4463 62.172 75.0258 61.9958 75.4954 62.2435L78.7817 63.9702C79.2491 64.2157 79.425 64.7872 79.1751 65.2464C78.9263 65.7045 78.3468 65.8807 77.8761 65.6329L75.436 64.3512L70.6512 73.1407C70.4786 73.4578 70.1468 73.6384 69.8038 73.6384Z" fill="white"/>
<path d="M83.8928 70.1873C83.737 70.1873 83.5812 70.1499 83.4411 70.0761L77.2272 66.8155C77.0019 66.6977 76.8338 66.4962 76.7598 66.2561C76.6858 66.0161 76.7127 65.7562 76.8349 65.536L78.1362 63.1706C78.385 62.7148 78.9645 62.5452 79.4285 62.7852L85.6424 66.0139C85.8688 66.1306 86.0369 66.3321 86.112 66.571C86.186 66.8111 86.1613 67.0699 86.0414 67.2912L84.7401 69.6885C84.6202 69.9087 84.4151 70.0739 84.1719 70.1466C84.0811 70.1741 83.9869 70.1873 83.8928 70.1873ZM78.9813 65.5987L83.4982 67.9684L83.8939 67.2384L79.3724 64.8896L78.9813 65.5987Z" fill="white"/>
<path d="M81.744 74.0866C81.5927 74.0866 81.438 74.0514 81.2946 73.9765L75.1782 70.7798C74.7097 70.5353 74.5326 69.9638 74.7814 69.5046C75.0302 69.0455 75.6108 68.8704 76.0793 69.1148L82.1957 72.3115C82.6642 72.556 82.8413 73.1275 82.5925 73.5867C82.4199 73.906 82.0881 74.0866 81.744 74.0866Z" fill="white"/>
<path d="M79.6614 77.922C79.5101 77.922 79.3554 77.8867 79.212 77.8118L73.0956 74.6151C72.627 74.3707 72.45 73.7992 72.6988 73.34C72.9476 72.8808 73.5282 72.7057 73.9967 72.9502L80.1131 76.1469C80.5816 76.3913 80.7587 76.9628 80.5099 77.422C80.3373 77.7414 80.0055 77.922 79.6614 77.922Z" fill="white"/>
<path d="M77.5803 81.7573C77.4289 81.7573 77.2754 81.7221 77.1319 81.6483L71.6656 78.804C71.1971 78.5595 71.0189 77.9891 71.2666 77.5288C71.5154 77.0696 72.0949 76.8968 72.5645 77.1368L78.0308 79.9811C78.4993 80.2256 78.6776 80.796 78.4299 81.2563C78.2572 81.5756 77.9244 81.7573 77.5803 81.7573Z" fill="white"/>
<path d="M51.4843 65.362C44.0884 65.362 41.6663 54.8739 41.4197 49.3081C41.3968 48.7883 41.8075 48.3479 42.3371 48.3253C42.8505 48.3049 43.3145 48.7057 43.3375 49.2266C43.5818 54.7473 46.0124 63.4757 51.491 63.4757C51.5089 63.4757 51.5257 63.4757 51.5431 63.4757C57.1333 63.4185 59.5554 54.6889 59.7689 49.1996C59.7891 48.6793 60.2565 48.2906 60.7642 48.2933C61.2944 48.3132 61.7068 48.7509 61.6867 49.2712C61.4367 55.7004 58.5343 65.2905 51.5633 65.3609C51.5369 65.3609 51.51 65.362 51.4843 65.362Z" fill="white"/>
<path d="M33.1716 87C32.6414 87 32.2116 86.5782 32.2116 86.0574C32.2116 79.9756 33.6104 74.4257 36.0493 70.8304C37.4481 68.769 39.5267 68.4541 41.3604 68.1766C42.8774 67.9464 44.1877 67.7482 45.1449 66.6977C45.911 65.8972 45.837 64.219 45.7507 62.2765L46.7056 62.1488L47.6645 62.108C47.7732 64.5636 47.864 66.6107 46.5588 67.9729C45.1589 69.509 43.2966 69.7909 41.6535 70.0398C40.0025 70.2908 38.5762 70.5067 37.6465 71.8765C35.4127 75.169 34.1316 80.3379 34.1316 86.0574C34.1316 86.5782 33.7017 87 33.1716 87Z" fill="white"/>
<path d="M69.9675 87C69.4373 87 69.008 86.5782 69.008 86.0574C69.008 80.3687 67.7146 75.1998 65.4595 71.8765C64.5292 70.5055 63.1091 70.2897 61.4631 70.0397C59.8239 69.7909 57.9661 69.509 56.5365 67.9596C55.2111 66.5766 55.3395 64.3687 55.4751 62.0309C55.5053 61.5112 55.9554 61.1103 56.4883 61.1434C57.0173 61.1731 57.422 61.6191 57.3917 62.1388C57.2796 64.0604 57.1743 65.8751 57.946 66.6801C58.9312 67.7471 60.2403 67.9453 61.7562 68.1766C63.5854 68.4541 65.6578 68.769 67.0567 70.8304C69.5169 74.4554 70.9269 80.0064 70.9269 86.0574C70.9269 86.5782 70.4976 87 69.9675 87Z" fill="white"/>
<path d="M69.9674 87.0001H33.1716C32.6414 87.0001 32.2116 86.5783 32.2116 86.0575C32.2116 85.5366 32.6414 85.1149 33.1716 85.1149H69.9674C70.4976 85.1149 70.9269 85.5366 70.9269 86.0575C70.9269 86.5783 70.4976 87.0001 69.9674 87.0001Z" fill="white"/>
<path d="M60.6952 50.6575C58.0624 50.6575 56.3716 49.4159 54.5816 48.1011C54.274 47.8754 53.9585 47.6436 53.6295 47.4123C48.8318 44.0824 44.6796 48.0218 43.1166 49.8696C42.7781 50.2704 42.1723 50.3249 41.7655 49.9924C41.3575 49.6598 41.3014 49.0652 41.6405 48.6649C45.6038 43.9761 50.5018 42.9339 54.7425 45.8757C55.0871 46.1185 55.4127 46.3574 55.7305 46.5909C57.3899 47.8093 58.7007 48.7712 60.6952 48.7712C61.2254 48.7712 61.6552 49.1935 61.6552 49.7143C61.6552 50.2352 61.2254 50.6575 60.6952 50.6575Z" fill="white"/>
<path d="M42.3791 50.2105C42.0171 50.2105 41.6708 50.0084 41.5083 49.6643C39.5322 45.4826 39.4403 41.6456 41.2505 38.8596C43.0836 36.0384 46.7426 34.4841 51.5532 34.4841C52.0833 34.4841 52.5132 34.9064 52.5132 35.4273C52.5132 35.9481 52.0833 36.3704 51.5532 36.3704C47.4207 36.3704 44.3367 37.6148 42.8684 39.8744C41.4236 42.0982 41.5587 45.2932 43.2489 48.8704C43.4725 49.3428 43.2635 49.9033 42.7826 50.1224C42.6521 50.1824 42.5148 50.2105 42.3791 50.2105Z" fill="white"/>
<path d="M60.7273 50.1786C60.5922 50.1786 60.4555 50.1505 60.3249 50.091C59.8441 49.8724 59.6345 49.3125 59.857 48.8395C61.5399 45.2646 61.6744 42.0784 60.2364 39.8683C58.7687 37.6126 55.6735 36.3704 51.5208 36.3704C50.9906 36.3704 50.5608 35.9481 50.5608 35.4273C50.5608 34.9064 50.9906 34.4841 51.5208 34.4841C56.351 34.4841 60.0206 36.0357 61.8538 38.8525C63.6572 41.6236 63.5664 45.4518 61.5988 49.6313C61.4368 49.9759 61.0899 50.1786 60.7273 50.1786Z" fill="white"/>
<path d="M46.51 37.0735C46.0919 37.0735 45.708 36.8032 45.5875 36.3886C45.5012 36.0902 45.453 35.7488 45.453 35.4273C45.453 32.9447 48.1184 31 51.5207 31C54.9415 31 57.6214 32.9447 57.6214 35.4273C57.6214 35.6486 57.6152 35.8699 57.5698 36.0913C57.4661 36.6027 56.9606 36.937 56.4406 36.8307C55.9211 36.7288 55.5837 36.2322 55.6879 35.7213C55.7075 35.6233 55.7014 35.5253 55.7014 35.4273C55.7014 34.0497 53.787 32.8863 51.5207 32.8863C49.2723 32.8863 47.373 34.0497 47.373 35.4273C47.373 35.5748 47.3954 35.7405 47.4335 35.8721C47.5787 36.3726 47.2834 36.8946 46.7734 37.0372C46.6859 37.0619 46.5974 37.0735 46.51 37.0735Z" fill="white"/>
<path d="M51.5533 79.6156C51.4154 79.6156 51.277 79.5869 51.147 79.5275L45.1606 76.779C44.7078 76.5708 44.4931 76.0566 44.6674 75.5963L45.0081 74.6933L44.1148 74.5546C43.8492 74.5128 43.6138 74.3641 43.4653 74.1439C43.3168 73.9225 43.2692 73.6516 43.3342 73.3951L44.9286 67.0986C45.0261 66.7154 45.3567 66.4313 45.7574 66.3894C46.1525 66.3388 46.5431 66.5546 46.7208 66.9092L52.4141 78.2556C52.5945 78.6146 52.5239 79.0463 52.2392 79.3326C52.0543 79.5176 51.8054 79.6156 51.5533 79.6156ZM46.7746 75.4377L49.4842 76.6821L46.1581 70.0541L45.4498 72.8533L46.4663 73.0119C46.7505 73.057 46.9993 73.2233 47.1445 73.4677C47.2896 73.7122 47.3154 74.0073 47.2151 74.2716L46.7746 75.4377Z" fill="white"/>
<path d="M51.5534 79.6156C51.3012 79.6156 51.0524 79.5176 50.8674 79.3326C50.5827 79.0463 50.5121 78.6146 50.6926 78.2556L56.3864 66.9092C56.5641 66.5546 56.953 66.3377 57.3498 66.3894C57.7505 66.4313 58.0811 66.7154 58.1786 67.0986L59.7724 73.3951C59.8374 73.6517 59.7898 73.9225 59.6419 74.1428C59.4939 74.363 59.2591 74.5117 58.994 74.5535L58.1136 74.6934L58.4442 75.6095C58.6096 76.0665 58.3938 76.5731 57.946 76.779L51.9597 79.5275C51.8297 79.587 51.6912 79.6156 51.5534 79.6156ZM56.9485 70.0541L53.6224 76.6821L56.3438 75.4334L55.9196 74.2584C55.8243 73.9952 55.8534 73.7034 55.998 73.4634C56.1432 73.2222 56.3898 73.057 56.6711 73.013L57.658 72.8555L56.9485 70.0541Z" fill="white"/>
<path d="M51.5532 70.2017C49.302 70.2017 47.0508 69.4881 45.2558 68.0588C44.8439 67.7318 44.7806 67.1382 45.114 66.733C45.4486 66.3278 46.0527 66.265 46.464 66.5943C49.3653 68.9023 53.7416 68.9023 56.6429 66.5943C57.0531 66.2639 57.6589 66.3278 57.9929 66.733C58.3264 67.1382 58.2631 67.7318 57.8512 68.0588C56.0561 69.487 53.8044 70.2017 51.5532 70.2017Z" fill="white"/>
<path d="M51.5533 87C51.0231 87 50.5933 86.5782 50.5933 86.0574V78.6729C50.5933 78.1521 51.0231 77.7303 51.5533 77.7303C52.0834 77.7303 52.5132 78.1521 52.5132 78.6729V86.0574C52.5132 86.5782 52.0834 87 51.5533 87Z" fill="white"/>
<path d="M37.6937 87.0001C37.1635 87.0001 36.7337 86.5783 36.7337 86.0574V82.2529C36.7337 81.7321 37.1635 81.3103 37.6937 81.3103C38.2238 81.3103 38.6537 81.7321 38.6537 82.2529V86.0574C38.6537 86.5783 38.2238 87.0001 37.6937 87.0001Z" fill="white"/>
<path d="M64.6973 87.0001C64.1671 87.0001 63.7379 86.5783 63.7379 86.0574V82.2529C63.7379 81.7321 64.1671 81.3103 64.6973 81.3103C65.2274 81.3103 65.6567 81.7321 65.6567 82.2529V86.0574C65.6567 86.5783 65.2274 87.0001 64.6973 87.0001Z" fill="white"/>
<path d="M71.4322 60.9177C70.4168 60.9177 69.4775 60.5004 68.7871 59.7686C68.3634 59.936 67.905 60.023 67.4297 60.023C65.8774 60.023 64.5032 59.0198 63.9305 57.5531C63.0204 57.4154 62.182 56.9337 61.5723 56.1843C61.2416 55.7774 61.3089 55.1845 61.7225 54.8591C62.1383 54.5331 62.7413 54.6014 63.0719 55.0072C63.4284 55.446 63.9518 55.7075 64.4696 55.7075H64.6646C65.1275 55.7075 65.5232 56.0318 65.6084 56.4783C65.79 57.4397 66.5566 58.1367 67.4297 58.1367C67.822 58.1367 68.1706 58.0216 68.4643 57.7948C68.6862 57.6236 68.9709 57.5586 69.2477 57.612C69.5223 57.6671 69.76 57.8377 69.8967 58.0789C70.2341 58.6757 70.8079 59.032 71.4322 59.032C72.4634 59.032 73.3029 58.0932 73.3029 56.9386C73.3029 56.4178 73.7322 55.9955 74.2624 55.9955C74.7925 55.9955 75.2218 56.4178 75.2218 56.9386C75.2218 59.1327 73.5215 60.9177 71.4322 60.9177ZM64.5357 40.3335C64.1838 40.3335 63.8442 40.1425 63.6761 39.8121C63.4396 39.3463 63.6312 38.7798 64.1053 38.5469C64.1883 38.5061 64.2735 38.4692 64.3587 38.4357C64.4506 36.371 66.0489 34.712 68.0238 34.646C68.6335 33.2756 69.9415 32.3743 71.4322 32.3743C73.5215 32.3743 75.2218 34.1598 75.2218 36.3539C75.2218 36.8747 74.7925 37.297 74.2623 37.297C73.7322 37.297 73.3029 36.8747 73.3029 36.3539C73.3029 35.1993 72.4634 34.2606 71.4322 34.2606C70.5793 34.2606 69.8407 34.9136 69.6367 35.8485C69.5302 36.3412 69.0505 36.6655 68.5405 36.5807C68.3556 36.5499 68.2592 36.5301 68.146 36.5301C67.1137 36.5301 66.2742 37.4688 66.2742 38.6234C66.2742 38.7589 66.2708 38.8717 66.2943 39.0072C66.3392 39.2632 66.2742 39.5264 66.115 39.7339C65.9558 39.9415 65.7171 40.0753 65.4537 40.1039C65.2508 40.126 65.104 40.165 64.9639 40.2339C64.826 40.3016 64.6792 40.3335 64.5357 40.3335Z" fill="white"/>
<path d="M74.2624 57.8818C73.7323 57.8818 73.303 57.4595 73.303 56.9386V36.3539C73.303 35.8331 73.7323 35.4108 74.2624 35.4108C74.7926 35.4108 75.2219 35.8331 75.2219 36.3539V56.9386C75.2219 57.4595 74.7926 57.8818 74.2624 57.8818Z" fill="white"/>
<path d="M65.4785 44.2333C65.3529 44.2333 65.2252 44.2091 65.1019 44.1574C65.0447 44.1337 64.9338 44.1051 64.7298 44.1051C64.1996 44.1051 63.7703 43.6828 63.7703 43.1619C63.7703 42.641 64.1996 42.2188 64.7298 42.2188C65.159 42.2188 65.5278 42.2859 65.8551 42.423C66.3426 42.6273 66.569 43.1812 66.3617 43.6602C66.2059 44.0186 65.8506 44.2333 65.4785 44.2333Z" fill="white"/>
<path d="M64.6637 57.5938C64.1985 57.5938 63.7905 57.2612 63.7166 56.796C63.6347 56.2818 63.9934 55.7994 64.5168 55.7191C65.2196 55.6111 65.7867 55.147 65.9963 54.5078C66.1589 54.0117 66.6957 53.7403 67.2046 53.8994C67.709 54.0591 67.9858 54.5904 67.8233 55.0859C67.3895 56.4073 66.2362 57.3642 64.8127 57.5822C64.7623 57.5899 64.713 57.5938 64.6637 57.5938Z" fill="white"/>
<path d="M74.2626 48.9639C73.8602 48.9639 73.4858 48.714 73.3525 48.3186C73.1205 47.637 72.458 47.1509 71.7026 47.1085C71.1736 47.0787 70.7689 46.6333 70.7992 46.113C70.8295 45.5927 71.2901 45.204 71.8124 45.2255C73.3457 45.3114 74.6963 46.3151 75.1727 47.7229C75.3408 48.2168 75.0685 48.7509 74.5663 48.9155C74.4655 48.9485 74.3635 48.9639 74.2626 48.9639Z" fill="white"/>
<path d="M69.2199 51.5848C69.1 51.5848 68.9778 51.5627 68.8601 51.5154C67.217 50.8624 65.9818 49.5366 65.4696 47.8782C65.3161 47.38 65.603 46.8536 66.1107 46.7027C66.6207 46.5519 67.1531 46.8343 67.3078 47.3321C67.6496 48.4415 68.4779 49.329 69.5797 49.7678C70.0718 49.9627 70.3083 50.5128 70.1099 50.9956C69.9586 51.3623 69.5988 51.5848 69.2199 51.5848Z" fill="white"/>
<path d="M65.902 51.0094C65.5647 51.0094 65.2374 50.8343 65.0614 50.5243C64.8048 50.069 64.9718 49.4947 65.4347 49.242C66.2114 48.8175 67.1305 48.6804 68.0092 48.8544C68.5293 48.9568 68.8666 49.4534 68.7624 49.9644C68.6582 50.4742 68.1437 50.8046 67.6326 50.7033C67.1921 50.6174 66.7449 50.6834 66.3672 50.8905C66.2192 50.9708 66.059 51.0094 65.902 51.0094Z" fill="white"/>
<path d="M71.0087 56.1876C70.6332 56.1876 70.2756 55.9691 70.1221 55.6068C69.9685 55.2434 69.7982 54.9158 69.6144 54.6317C69.3297 54.1923 69.4608 53.6098 69.908 53.3301C70.3563 53.051 70.9493 53.1803 71.2328 53.6197C71.4761 53.9941 71.6991 54.4192 71.8953 54.8822C72.0981 55.3629 71.8672 55.9151 71.3774 56.115C71.2564 56.1645 71.132 56.1876 71.0087 56.1876Z" fill="white"/>
<path d="M70.5547 37.9043C70.2218 37.9043 69.8979 37.7337 69.7208 37.4297C69.4653 36.992 69.0214 36.6798 68.5036 36.5741C67.9847 36.4679 67.6506 35.9685 67.7594 35.4586C67.867 34.9488 68.3848 34.624 68.8936 34.7275C69.9506 34.9433 70.8585 35.5869 71.3864 36.4926C71.6498 36.9447 71.4906 37.5206 71.03 37.7794C70.8798 37.8641 70.7161 37.9043 70.5547 37.9043Z" fill="white"/>
<path d="M70.9437 43.0506C70.8171 43.0506 70.6893 43.0258 70.566 42.9741C69.5012 42.5253 68.5586 41.7127 67.9141 40.6847C67.6362 40.241 67.7763 39.6601 68.228 39.387C68.6797 39.1128 69.2703 39.2521 69.5483 39.6948C69.981 40.3852 70.6277 40.9485 71.3215 41.2408C71.809 41.4462 72.0343 42.0001 71.8258 42.4791C71.67 42.8364 71.3159 43.0506 70.9437 43.0506Z" fill="white"/>
<path d="M69.286 43.5941C69.2434 43.5941 69.2009 43.5913 69.1583 43.5858C68.6326 43.517 68.2638 43.0424 68.3333 42.5265C68.4107 41.9555 68.5687 41.4126 68.803 40.9133C69.0249 40.4409 69.592 40.2311 70.0762 40.4519C70.5582 40.6699 70.7689 41.2298 70.547 41.7028C70.3923 42.0309 70.2881 42.3916 70.2365 42.7753C70.1715 43.2494 69.7601 43.5941 69.286 43.5941Z" fill="white"/>
<path d="M77.0926 60.9177C75.0033 60.9177 73.303 59.1327 73.303 56.9386C73.303 56.4178 73.7323 55.9955 74.2624 55.9955C74.7926 55.9955 75.2219 56.4178 75.2219 56.9386C75.2219 58.0932 76.0614 59.0319 77.0925 59.0319C77.7281 59.0319 78.3288 58.6669 78.6606 58.0789C78.7973 57.8377 79.035 57.667 79.3096 57.612C79.592 57.5613 79.8733 57.6252 80.093 57.7948C80.3867 58.0216 80.7353 58.1367 81.1264 58.1367C82.0007 58.1367 82.7673 57.4397 82.9489 56.4783C83.0341 56.0318 83.4297 55.7075 83.8927 55.7075H84.0877C85.1188 55.7075 85.9584 54.7688 85.9584 53.6142C85.9584 53.4738 85.9303 53.3339 85.9057 53.1941C85.853 52.8841 85.9617 52.5686 86.1937 52.3528C86.6174 51.9613 86.8696 51.3573 86.8696 50.7374C86.8696 49.9985 86.4997 49.2976 85.927 48.9518C85.7039 48.8164 85.5459 48.5967 85.491 48.344C85.4372 48.0913 85.4898 47.8275 85.6389 47.6145C85.9079 47.2307 86.0559 46.7732 86.0559 46.3267C86.0559 45.52 85.6109 44.752 84.9485 44.415C84.4923 44.1838 84.3029 43.6409 84.517 43.1828C84.675 42.8481 84.7546 42.5072 84.7546 42.1714C84.7546 41.0999 84.0294 40.2108 83.0677 40.1039C82.8066 40.0748 82.569 39.941 82.4109 39.735C82.2518 39.5286 82.1867 39.267 82.2293 39.0121C82.2607 38.8288 82.282 38.7346 82.282 38.6234C82.282 37.4688 81.4425 36.5301 80.4113 36.5301C80.2825 36.5301 80.1536 36.5543 80.0448 36.5758C79.5304 36.6754 79.0294 36.3517 78.9195 35.8485C78.7189 34.9279 77.95 34.2606 77.0926 34.2606C76.0614 34.2606 75.2219 35.1993 75.2219 36.3539C75.2219 36.8747 74.7926 37.297 74.2625 37.297C73.7323 37.297 73.303 36.8747 73.303 36.3539C73.303 34.1598 75.0033 32.3743 77.0926 32.3743C78.5709 32.3743 79.9092 33.2915 80.5279 34.646C82.5095 34.7087 84.1135 36.3776 84.1975 38.4522C85.658 39.0138 86.6734 40.475 86.6734 42.1714C86.6734 42.5199 86.6286 42.8668 86.5389 43.2092C87.43 43.9569 87.9747 45.1065 87.9747 46.3266C87.9747 46.8635 87.8615 47.4052 87.6475 47.9101C88.3659 48.638 88.7885 49.6577 88.7885 50.7374C88.7885 51.7053 88.4567 52.6319 87.8649 53.3499C87.8727 53.438 87.8772 53.5261 87.8772 53.6142C87.8772 55.6161 86.4616 57.2778 84.6268 57.5536C84.0541 59.0204 82.6788 60.023 81.1264 60.023C80.649 60.023 80.1894 59.9355 79.7646 59.7664C79.0675 60.4916 78.1058 60.9177 77.0926 60.9177Z" fill="white"/>
<path d="M85.3879 44.5207C85.2131 44.5207 85.0371 44.4739 84.8779 44.3753C84.2951 44.0147 83.5957 43.9998 83.0028 44.3324C82.5444 44.5912 81.9571 44.4337 81.6937 43.9817C81.4303 43.5296 81.5894 42.9537 82.0501 42.695C83.2673 42.0106 84.7065 42.0409 85.9002 42.7797C86.3485 43.0572 86.4841 43.6392 86.2017 44.0797C86.019 44.3643 85.7074 44.5207 85.3879 44.5207Z" fill="white"/>
<path d="M83.8939 57.5937C83.8468 57.5937 83.7997 57.5904 83.7515 57.5833C82.7585 57.4379 81.8853 56.9264 81.2924 56.1424C80.6984 55.3567 80.4529 54.3871 80.6009 53.4115C80.6782 52.8961 81.1635 52.5421 81.6914 52.6175C82.216 52.6941 82.578 53.1742 82.4996 53.689C82.3494 54.6789 83.0241 55.5703 84.034 55.7179C84.5585 55.7944 84.9206 56.2745 84.8421 56.7893C84.7715 57.2573 84.3613 57.5937 83.8939 57.5937Z" fill="white"/>
<path d="M74.2624 52.6397C74.1537 52.6397 74.0428 52.6215 73.9352 52.5829C73.4364 52.4051 73.1797 51.8639 73.3602 51.3744C73.8937 49.933 75.2331 48.9739 76.7731 48.932C77.3167 48.932 77.7449 49.3284 77.7595 49.8482C77.774 50.369 77.356 50.8029 76.8269 50.8172C76.0793 50.8376 75.427 51.3089 75.1647 52.0186C75.0224 52.4018 74.6547 52.6397 74.2624 52.6397Z" fill="white"/>
<path d="M80.5739 51.5847C80.2052 51.5847 79.8521 51.3738 79.6952 51.0198C79.4822 50.5424 79.703 49.9863 80.1895 49.7777C81.4538 49.2342 82.3191 48.0615 82.448 46.7175C82.4984 46.1994 82.977 45.8278 83.4937 45.8674C84.0216 45.9164 84.4094 46.3761 84.3601 46.8948C84.1651 48.9204 82.8616 50.6872 80.9584 51.5054C80.834 51.5593 80.7028 51.5847 80.5739 51.5847Z" fill="white"/>
<path d="M83.6315 51.0413C83.4801 51.0413 83.3277 51.0061 83.1842 50.9317C82.8514 50.7594 82.4176 50.7043 81.9592 50.7743C81.4357 50.8557 80.9448 50.5039 80.8619 49.9897C80.7801 49.4749 81.1376 48.9926 81.661 48.9111C82.5364 48.7762 83.3748 48.8979 84.0809 49.2645C84.5494 49.5079 84.7288 50.0783 84.481 50.5386C84.3096 50.8585 83.9767 51.0413 83.6315 51.0413Z" fill="white"/>
<path d="M77.9702 37.9043C77.7976 37.9043 77.6238 37.8586 77.4669 37.7628C77.0152 37.4892 76.8762 36.9083 77.1553 36.4651C77.7169 35.5721 78.6315 34.9389 79.6615 34.7275C80.1805 34.624 80.6893 34.9488 80.7969 35.4586C80.9056 35.9685 80.5727 36.4679 80.0538 36.5741C79.536 36.6798 79.0742 37.0019 78.7873 37.4573C78.6057 37.7458 78.2919 37.9043 77.9702 37.9043Z" fill="white"/>
<path d="M77.6777 44.3611C77.5297 44.3611 77.3795 44.327 77.2383 44.2559C76.7675 44.0164 76.5826 43.4477 76.8258 42.9852C77.2002 42.2733 77.319 41.4353 77.1587 40.6243C77.059 40.1128 77.3986 39.6183 77.9186 39.5198C78.4432 39.419 78.9442 39.7554 79.044 40.2664C79.2849 41.4914 79.1034 42.7644 78.5317 43.8507C78.3614 44.175 78.0251 44.3611 77.6777 44.3611Z" fill="white"/>
<path d="M78.1327 42.8905C77.6888 42.8905 77.2898 42.5855 77.1945 42.1411C77.0858 41.6319 77.4176 41.1319 77.9365 41.0246C78.4577 40.9172 78.933 40.7328 79.3488 40.4767C79.7982 40.202 80.3889 40.3352 80.6714 40.7757C80.9527 41.2173 80.816 41.7992 80.3665 42.0756C79.759 42.4495 79.0742 42.7165 78.3311 42.8701C78.2649 42.8839 78.1977 42.8905 78.1327 42.8905Z" fill="white"/>
<path d="M77.5812 56.1876C77.4803 56.1876 77.3783 56.1722 77.2786 56.1392C76.7753 55.9745 76.503 55.441 76.6711 54.9466C76.8381 54.4527 77.0802 53.9902 77.3895 53.5712C77.7011 53.1506 78.3008 53.0553 78.7312 53.3631C79.1593 53.6692 79.2546 54.2589 78.943 54.6801C78.7514 54.9389 78.5956 55.2367 78.4913 55.5423C78.3579 55.9376 77.9836 56.1876 77.5812 56.1876Z" fill="white"/>
</svg>
