<!-- <?xml version="1.0" encoding="utf-8"?> -->

<svg version="1.1" id="Layer_1" xmlns="http://www.w3.org/2000/svg" xmlns:xlink="http://www.w3.org/1999/xlink" x="0px" y="0px"
	 viewBox="0 0 106 106" style="enable-background:new 0 0 106 106;" xml:space="preserve">
<style type="text/css">
	.st0{fill:#FCFCFC;}
	.st1{fill:#59CDFF;}
	.st2{fill:#FFFFFF;}
</style>
<path class="st0" d="M28.8,9.96c13.28-13.28,34.81-13.28,48.08,0L95.73,28.8c13.28,13.28,13.28,34.81,0,48.08L76.89,95.73
	c-13.28,13.28-34.81,13.28-48.08,0L9.96,76.89c-13.28-13.28-13.28-34.81,0-48.08L28.8,9.96z"/>
<path class="st1" d="M49.9,17.23c18.57-2.79,35.88,10,38.67,28.57l0.69,4.6c2.79,18.57-10,35.88-28.57,38.67l-4.6,0.69
	c-18.57,2.79-35.88-10-38.68-28.57l-0.69-4.6c-2.79-18.57,10-35.88,28.57-38.68L49.9,17.23z"/>
<path class="st2" d="M71.4,44.36c-0.97-0.55-2.18-0.59-3.15,0l-4.58,2.63v-1.06c0-2.16-1.76-3.94-3.91-3.94H36.96
	c-2.14,0-3.91,1.78-3.91,3.94v15.14c0,2.16,1.76,3.94,3.91,3.94h22.81c2.14,0,3.91-1.78,3.91-3.94v-1.06l4.58,2.63
	c0.5,0.3,1.05,0.42,1.55,0.42c0.55,0,1.09-0.13,1.55-0.42c0.97-0.59,1.55-1.61,1.55-2.76V47.12C72.95,45.97,72.36,44.96,71.4,44.36z
	 M60.94,61.11c0,0.64-0.55,1.19-1.18,1.19H36.96c-0.63,0-1.18-0.55-1.18-1.19V45.93c0-0.64,0.55-1.19,1.18-1.19h22.81
	c0.63,0,1.18,0.55,1.18,1.19V61.11L60.94,61.11z M70.22,59.92c0,0.21-0.13,0.3-0.21,0.38c-0.08,0.04-0.21,0.08-0.42,0l-5.92-3.43
	v-6.66l5.92-3.48c0.17-0.08,0.34-0.04,0.42,0s0.21,0.17,0.21,0.38V59.92z"/>
<path class="st2" d="M52.83,52.25l-6.51-3.86c-0.97-0.59-2.18,0.13-2.18,1.27v7.72c0,1.14,1.22,1.82,2.18,1.27l6.51-3.86
	C53.8,54.2,53.8,52.84,52.83,52.25z"/>
</svg>
