<?xml version="1.0" encoding="utf-8"?>

<svg version="1.1" id="Layer_1" xmlns="http://www.w3.org/2000/svg" xmlns:xlink="http://www.w3.org/1999/xlink" x="0px" y="0px"
	 viewBox="0 0 107 106" style="enable-background:new 0 0 107 106;" xml:space="preserve">
<style type="text/css">
	.st0{fill:#FFFFFF;}
	.st1{fill:#0C81EB;}
</style>
<path class="st0" d="M29.29,9.96c13.28-13.28,34.81-13.28,48.08,0L96.22,28.8c13.28,13.28,13.28,34.81,0,48.08L77.37,95.73
	c-13.28,13.28-34.81,13.28-48.08,0L10.44,76.89c-13.28-13.28-13.28-34.81,0-48.08L29.29,9.96z"/>
<path class="st1" d="M49.9,17.23c18.57-2.79,35.88,10,38.68,28.57l0.69,4.6c2.79,18.57-10,35.88-28.57,38.67l-4.6,0.69
	c-18.57,2.79-35.88-10-38.68-28.57l-0.69-4.6c-2.79-18.57,10-35.88,28.57-38.68L49.9,17.23z"/>
<path class="st0" d="M59.6,33.35H46.44c-7.65,0-13.89,6.78-13.89,15.12c0,7.08,4.47,13.18,10.75,14.77v9.55
	c0,0.35,0.17,0.65,0.47,0.78c0.13,0.04,0.22,0.09,0.34,0.09c0.22,0,0.39-0.09,0.56-0.22l11.09-9.81h3.83
	c7.65,0,13.85-6.78,13.85-15.16C73.45,40.09,67.25,33.35,59.6,33.35z M59.6,61.95h-4.17c-0.22,0-0.39,0.09-0.56,0.22l-9.89,8.77
	v-8.38c0-0.39-0.3-0.73-0.69-0.82c-5.81-1.12-10.06-6.7-10.06-13.26c0-7.39,5.46-13.44,12.21-13.44h13.2
	c6.71,0,12.17,6.05,12.17,13.48C71.81,55.9,66.35,61.95,59.6,61.95z"/>
<path class="st0" d="M41.54,51.53c-0.22,0-0.34-0.17-0.34-0.35v-4.02c0-0.22,0.17-0.35,0.34-0.35c0.22,0,0.34,0.17,0.34,0.35v4.02
	C41.93,51.36,41.76,51.53,41.54,51.53z"/>
<path class="st0" d="M48.59,51.53c-0.22,0-0.34-0.17-0.34-0.35v-4.02c0-0.22,0.17-0.35,0.34-0.35c0.17,0,0.34,0.17,0.34,0.35v4.02
	C48.98,51.36,48.81,51.53,48.59,51.53z"/>
<path class="st0" d="M55.69,52.23c-0.22,0-0.34-0.17-0.34-0.35v-5.44c0-0.22,0.17-0.35,0.34-0.35c0.22,0,0.34,0.17,0.34,0.35v5.44
	C56.03,52.05,55.86,52.23,55.69,52.23z"/>
<path class="st0" d="M57.45,50.97c-0.22,0-0.34-0.17-0.34-0.35v-2.94c0-0.22,0.17-0.35,0.34-0.35c0.22,0,0.34,0.17,0.34,0.35v2.94
	C57.79,50.84,57.62,50.97,57.45,50.97z"/>
<path class="st0" d="M64.5,50.97c-0.22,0-0.34-0.17-0.34-0.35v-2.94c0-0.22,0.17-0.35,0.34-0.35c0.21,0,0.34,0.17,0.34,0.35v2.94
	C64.85,50.84,64.67,50.97,64.5,50.97z"/>
<path class="st0" d="M43.3,52.87c-0.22,0-0.34-0.17-0.34-0.35v-6.78c0-0.22,0.17-0.35,0.34-0.35s0.34,0.17,0.34,0.35v6.78
	C43.69,52.74,43.52,52.87,43.3,52.87z"/>
<path class="st0" d="M50.36,52.87c-0.22,0-0.34-0.17-0.34-0.35v-6.78c0-0.22,0.17-0.35,0.34-0.35c0.22,0,0.34,0.17,0.34,0.35v6.78
	C50.74,52.74,50.57,52.87,50.36,52.87z"/>
<path class="st0" d="M52.12,54.04c-0.22,0-0.34-0.17-0.34-0.35v-9.07c0-0.22,0.17-0.35,0.34-0.35c0.22,0,0.34,0.17,0.34,0.35v9.07
	C52.51,53.91,52.33,54.04,52.12,54.04z"/>
<path class="st0" d="M60.98,52.87c-0.22,0-0.34-0.17-0.34-0.35v-6.78c0-0.22,0.17-0.35,0.34-0.35c0.22,0,0.34,0.17,0.34,0.35v6.78
	C61.32,52.74,61.15,52.87,60.98,52.87z"/>
<path class="st0" d="M62.74,54.04c-0.22,0-0.34-0.17-0.34-0.35v-9.07c0-0.22,0.17-0.35,0.34-0.35s0.34,0.17,0.34,0.35v9.07
	C63.08,53.91,62.91,54.04,62.74,54.04z"/>
<path class="st0" d="M46.83,53.74c-0.22,0-0.34-0.17-0.34-0.35v-8.47c0-0.22,0.17-0.35,0.34-0.35c0.22,0,0.34,0.17,0.34,0.35v8.47
	C47.22,53.56,47.04,53.74,46.83,53.74z"/>
<path class="st0" d="M45.07,56.29c-0.22,0-0.34-0.17-0.34-0.35V42.38c0-0.22,0.17-0.35,0.34-0.35c0.22,0,0.34,0.17,0.34,0.35V55.9
	C45.45,56.11,45.28,56.29,45.07,56.29z"/>
<path class="st0" d="M53.92,55.64c-0.22,0-0.34-0.17-0.34-0.35V43.02c0-0.22,0.17-0.35,0.34-0.35c0.21,0,0.34,0.17,0.34,0.35v12.27
	C54.27,55.47,54.1,55.64,53.92,55.64z"/>
<path class="st0" d="M59.21,55.64c-0.22,0-0.34-0.17-0.34-0.35V43.02c0-0.22,0.17-0.35,0.34-0.35s0.34,0.17,0.34,0.35v12.27
	C59.56,55.47,59.39,55.64,59.21,55.64z"/>
<path class="st0" d="M64.24,49.42H41.76c-0.22,0-0.34-0.17-0.34-0.35c0-0.17,0.17-0.35,0.34-0.35h22.49c0.22,0,0.34,0.17,0.34,0.35
	C64.59,49.24,64.46,49.42,64.24,49.42z"/>
</svg>
