<svg width="14" height="14" viewBox="0 0 14 14" fill="none" xmlns="http://www.w3.org/2000/svg">
<path d="M13.4543 2.91951C12.949 2.31878 12.0159 2.07373 10.234 2.07373H3.76582C1.94315 2.07373 0.994316 2.33458 0.490858 2.97416C0 3.59774 0 4.51655 0 5.7882V8.21196C0 10.6756 0.5824 11.9264 3.76582 11.9264H10.2341C11.7793 11.9264 12.6356 11.7102 13.1895 11.18C13.7576 10.6364 14 9.74871 14 8.21196V5.7882C14 4.44714 13.962 3.52291 13.4543 2.91951ZM8.98805 7.3347L6.05085 8.86978C5.98518 8.90411 5.91337 8.92113 5.84166 8.92113C5.76046 8.92113 5.67944 8.89927 5.60768 8.85583C5.47256 8.77395 5.39005 8.62749 5.39005 8.46952V5.40921C5.39005 5.2515 5.47233 5.10518 5.60718 5.02326C5.74208 4.94134 5.90985 4.93574 6.04981 5.00845L8.98701 6.53363C9.13645 6.61122 9.23029 6.76549 9.23052 6.93381C9.2307 7.10226 9.13726 7.25676 8.98805 7.3347Z" fill="white"/>
</svg>
